<svg height="166" viewBox="0 0 250 166" width="250" xmlns="http://www.w3.org/2000/svg"><g fill="none" transform="translate(11.914373)"><path d="m49.7472049 6.85168807 1.0396575 85.77148933 44.9240673 21.8828106-1.0396575-85.7712357z" fill="#f2f2f2"/><path d="m36.0956086 0-33.56829667 68.9133517 45.54745567 22.1868899-1.0396575-85.77148931z" fill="#f2f2f2"/><path d="m237.983336 96.8115046-90.66392-44.163107 1.039657 85.7712354 56.055713 27.305223z" fill="#f2f2f2"/><path d="m98.7324343 28.7347523 1.0396574 85.7712357 44.9243213 21.883064-1.039658-85.7712355z" fill="#f2f2f2"/><path d="m114.347095 97.1999801-1.269113 28.4281349s3.299694 26.905198 2.538226 27.666666-2.792049 2.284404-1.269113 4.061162c1.522936 1.776759 7.107033 3.045872 7.360856 2.030581.253823-1.01529.761468-29.95107.761468-29.95107l1.776758-34.2660549z" fill="#2f2e41"/><path d="m114.347095 97.1999801-1.269113 28.4281349s3.299694 26.905198 2.538226 27.666666-2.792049 2.284404-1.269113 4.061162c1.522936 1.776759 7.107033 3.045872 7.360856 2.030581.253823-1.01529.761468-29.95107.761468-29.95107l1.776758-34.2660549z" fill="#000" opacity=".2"/><path d="m115.616208 156.848298s-6.345566 4.82263-7.107034 4.82263-7.614679 2.284404-2.792049 3.299694c4.82263 1.015291 16.498471.507646 16.752294-1.01529s-.761468-6.144706-.761468-6.144706z" fill="#2f2e41"/><path d="m115.616208 156.848298s-6.345566 4.82263-7.107034 4.82263-7.614679 2.284404-2.792049 3.299694c4.82263 1.015291 16.498471.507646 16.752294-1.01529s-.761468-6.144706-.761468-6.144706z" fill="#000" opacity=".2"/><path d="m99.8792049 75.8788792s-2.7920489 1.0152905-2.7920489 1.7767584-2.5382263 10.4067278-3.0458716 10.9143731-.7614679 2.7920489-.7614679 2.7920489-2.5382263 5.8379205-2.030581 5.8379205c.5076452 0 4.8226299-1.0152905 5.0764526 0 .2538226 1.0152905 2.2844036-6.3455657 2.2844036-6.3455657l4.3149843-8.6299694z" fill="#387ed1"/><path d="m91.2492355 98.2152706s.7614679 5.5840984 2.7920489 6.0917434 0-7.1070339 0-7.1070339z" fill="#ffb8b8"/><path d="m97.8486239 72.8330076s1.5229357 3.2996942 2.2844041 5.0764526c.761467 1.7767585 7.868501-4.5688073 7.868501-4.5688073s-3.807339-2.7920489-3.807339-4.0611621c0-1.2691131-6.3455661 3.5535168-6.3455661 3.5535168z" fill="#ffb8b8"/><path d="m24.6307348 155.339439c1.7022209 6.292431 7.5327145 10.189494 7.5327145 10.189494s3.0706446-6.304987 1.3684238-12.59742c-1.7022209-6.292433-7.532712-10.189491-7.532712-10.189491s-3.0706472 6.304974-1.3684263 12.597417z" fill="#3f3d56"/><path d="m27.1320299 153.987128c4.6709177 4.546951 5.2414373 11.536675 5.2414373 11.536675s-7.0025374-.382343-11.6734576-4.929293c-4.6709202-4.546951-5.2414373-11.536676-5.2414373-11.536676s7.0025374.382333 11.6734576 4.929294z" fill="#387ed1"/><g fill="#2f2e41"><path d="m85.1574924 165.73209c-12.7565955 0-23.0978594-10.341264-23.0978594-23.097859 0-12.756596 10.3412639-23.097859 23.0978594-23.097859 12.7565954 0 23.0978596 10.341263 23.0978596 23.097859-.014386 12.750632-10.3472275 23.083474-23.0978596 23.097859zm0-45.688073c-12.4762308 0-22.5902141 10.113983-22.5902141 22.590214s10.1139833 22.590214 22.5902141 22.590214c12.4762307 0 22.5902136-10.113983 22.5902136-22.590214-.014066-12.4704-10.119814-22.576148-22.5902136-22.590214z"/><path d="m156.227829 165.73209c-12.756596 0-23.09786-10.341264-23.09786-23.097859 0-12.756596 10.341264-23.097859 23.09786-23.097859 12.756595 0 23.097859 10.341263 23.097859 23.097859-.014385 12.750632-10.347227 23.083474-23.097859 23.097859zm0-45.688073c-12.476231 0-22.590214 10.113983-22.590214 22.590214s10.113983 22.590214 22.590214 22.590214c12.47623 0 22.590214-10.113983 22.590214-22.590214-.014023-12.470418-10.119797-22.576191-22.590214-22.590214z"/><circle cx="85.157492" cy="142.634233" r="1.522936"/><circle cx="156.735474" cy="142.634233" r="1.522936"/><path d="m87.4215902 140.449453-.4670336-.199251 13.2660394-31.123985 37.619052.76756.072847.11422 18.529052 28.93578-.427437.273874-18.456205-28.821559-37.004801-.755376z"/><path d="m126.943043 146.234324 9.750088-34.381798.488355.138333-9.540431 33.642667 25.508921-3.251214.063963.503838z"/><path d="m111.935796 111.657069h.507615v37.333504h-.507615z" transform="matrix(.71387284 -.70027536 .70027536 .71387284 -59.162067 115.8528)"/><path d="m135.820042 106.337603h5.788047v.507628h-5.788047z" transform="matrix(.26270419 -.96487642 .96487642 .26270419 -.574246 212.431336)"/><path d="m101.142226 107.66293-.495461-.112444 1.198804-5.273926h-4.2507678v-3.2996946h.5076453v2.7920486h4.3792015z"/><path d="m130.084098 98.7229159s0-1.5229358 3.299694-.7614679 13.452599 2.792049 14.214067 2.538226c.761468-.253822.507646 1.522936-2.792049 2.284404-3.299694.761468-7.107033-1.015291-7.868501-1.522936s-6.853211-2.5382261-6.853211-2.5382261z"/></g><path d="m114.347095 144.157169h6.599388v2.538226h-6.599388z" fill="#387ed1"/><path d="m127.292049 151.010378c-2.803647 0-5.076453-2.272806-5.076453-5.076453s2.272806-5.076453 5.076453-5.076453 5.076453 2.272806 5.076453 5.076453c-.003118 2.802355-2.274098 5.073335-5.076453 5.076453zm0-9.64526c-2.523283 0-4.568807 2.045524-4.568807 4.568807s2.045524 4.568807 4.568807 4.568807 4.568807-2.045524 4.568807-4.568807c-.002929-2.522068-2.046739-4.565878-4.568807-4.568807z" fill="#2f2e41"/><circle cx="100.133028" cy="69.279493" fill="#ffb8b8" r="6.091743"/><path d="m119.423547 97.7076254s-17.513761 10.1529056-17.259938 13.4525996c.253822 3.299694 13.452599 21.321101 13.452599 21.321101s1.01529 5.330275 2.030581 5.330275 7.360856 2.284404 7.614679.761468-2.030581-3.299694-1.776759-4.314985c.253823-1.01529-11.168195-19.544342-11.168195-19.544342s24.444916-9.137615 19.329492-17.0061166c-5.115425-7.8685015-12.222459 0-12.222459 0z" fill="#2f2e41"/><path d="m119.931193 136.79631s-3.045872.761468-3.553517 1.776759c-.507645 1.01529-9.391437 4.314985-6.853211 5.076452 2.538226.761468 17.259939 1.015291 17.767584.507646.507645-.507646 0-6.399529-2.030581-6.372547-2.030581.026981-4.314985.788449-5.330275-.98831z" fill="#2f2e41"/><path d="m100.133028 78.6709281 5.711009-6.9801223s6.472477-1.9036697 9.264526 1.9036697c2.792049 3.8073395 10.406728 13.1987768 12.944954 15.2293578 2.538226 2.0305811 6.091743 9.8990826 4.82263 10.1529052-1.269113.2538227-8.376147-2.7920489-11.168196-.7614679-2.792049 2.0305814-8.122324 2.2844034-8.376147 1.2691132-.253822-1.0152905-15.4831801-18.0214067-15.4831801-20.3058104s1.6228378-2.7745682 1.6228378-2.7745682z" fill="#387ed1"/><path d="m95.0565636 97.4538095h8.1223244c.420547 0 .761468.3409208.761468.7614679s-.340921.7614678-.761468.7614678h-8.1223244c-.4205471 0-.7614679-.3409207-.7614679-.7614678s.3409208-.7614679.7614679-.7614679z" fill="#2f2e41" transform="matrix(.94281207 .33332477 -.33332477 .94281207 38.405922 -27.421665)"/><path d="m85.9189602 95.6770443s-8.883792 2.5382263-8.1223241 5.3302757c.7614679 2.792049 8.883792-3.2996946 8.883792-3.2996946z" fill="#ffb8b8"/><path d="m109.01682 73.5944755s-3.553517 3.0458716-4.314985 6.5993884-4.568807 9.8990826-4.568807 9.8990826l-15.4831809 5.0764526s-1.0152905 4.82263.5076453 4.82263c1.5229357 0 18.5290516-3.5535169 19.0366976-4.3149848.507645-.7614678 11.422018-15.2293578 11.422018-15.2293578s1.01529-7.8685015-6.599388-6.853211z" fill="#387ed1"/><path d="m96.3494383 62.2286941c-.1500782.129307-.3298017.2194975-.5231691.2625415-.2020787.0360256-.3953377-.0978426-.4326457-.2996884-.1118503.3104757-.3198024.5771894-.5936303.761374-.2906523.1514889-.7400909.0244634-.7819843-.3006123-.042441.2468222-.1516391.4773171-.3157554.666495-.1780652.188342-.474557.1982528-.6648021.0222222.127287.6956085.048734 1.4109696.0886958 2.1169975.0399619.706028.2282399 1.4545204.7616583 1.9187823.7779283.6770744 1.9477435.5099703 2.9710446.381696.1547472-.0324743.3153128-.0236911.4655945.0254685.3831579.163241.3657762.6966162.3709415 1.1130656.0645364 1.5088669 1.209398 2.7504585 2.7080919 2.9369004.406169.0626934.820611-.038454 1.152233-.2812101.290541-.2462663.438948-.6476513.771875-.8326474.541553-.300927 1.198352.1379425 1.594298.6144539.395945.4765113.786177 1.0626665 1.399552 1.1498952.811217.1153623 1.429093-.7113684 1.732231-1.4726206.844919-2.15551.783395-4.5609099-.170612-6.6704079-1.69385-3.6923502-7.4801178-4.2763656-10.5336167-2.1127054z" fill="#2f2e41"/><path d="m203.537491 165.721681-.451131-.233009c5.858733-11.326581 2.725867-26.035907-.93374-36.380905-2.48498-6.953365-5.654527-13.642689-9.461957-19.969448l.429069-.271174c3.827196 6.358919 7.013267 13.082286 9.511285 20.071076 3.693317 10.439694 6.848254 25.295755.906474 36.78346z" fill="#2f2e41"/><path d="m197.32494 117.761217h18.320959v.507481h-18.320959z" fill="#2f2e41" transform="matrix(.17975041 -.98371225 .98371225 .17975041 53.276821 299.923958)"/><path d="m194.047312 121.141624h.507828v24.963814h-.507828z" fill="#2f2e41" transform="matrix(.73207129 -.68122803 .68122803 .73207129 -38.969218 168.165021)"/><path d="m205.087594 150.248878h14.7239v.507724h-14.7239z" fill="#2f2e41" transform="matrix(.58584701 -.81042167 .81042167 .58584701 -33.984068 234.504873)"/><circle cx="209.40367" cy="101.641879" fill="#387ed1" r="2.538226"/><circle cx="181.737003" cy="121.186221" fill="#3f3d56" r="2.538226"/><circle cx="192.905199" cy="123.724447" fill="#3f3d56" r="2.538226"/><circle cx="187.828746" cy="133.62353" fill="#387ed1" r="2.538226"/><circle cx="219.556575" cy="139.969096" fill="#3f3d56" r="2.538226"/><circle cx="211.180428" cy="142.761145" fill="#3f3d56" r="2.538226"/><circle cx="217.018349" cy="150.883469" fill="#3f3d56" r="2.538226"/><circle cx="190.366972" cy="104.68775" fill="#3f3d56" r="2.538226"/><path d="m0 165.351359h229.201835v1h-229.201835z" fill="#2f2e41"/><path d="m9.89908394 104.906634h24.87461776v24.874618h-24.87461776z" fill="#f2f2f2" transform="matrix(.8660254 .5 -.5 .8660254 61.664481 4.552911)"/><path d="m27.412844 138.665041c-3.0840121 0-5.5840978-2.500085-5.5840978-5.584097 0-3.084013 2.5000857-5.584098 5.5840978-5.584098s5.5840979 2.500085 5.5840979 5.584098c-.0034816 3.082568-2.5015291 5.580616-5.5840979 5.584097zm0-10.66055c-2.8036473 0-5.0764526 2.272805-5.0764526 5.076453 0 2.803647 2.2728053 5.076452 5.0764526 5.076452 2.8036474 0 5.0764526-2.272805 5.0764526-5.076452-.003118-2.802355-2.2740977-5.073335-5.0764526-5.076453z" fill="#3f3d56"/></g></svg>